<mxfile host="app.diagrams.net" agent="Mozilla/5.0 (Windows NT 10.0; Win64; x64) AppleWebKit/537.36 (KHTML, like Gecko) Chrome/138.0.0.0 Safari/537.36" version="27.2.0">
  <diagram name="Page-1" id="jVzJO5NSrpgM18QCC51Y">
    <mxGraphModel dx="539" dy="697" grid="1" gridSize="10" guides="1" tooltips="1" connect="1" arrows="1" fold="1" page="1" pageScale="1" pageWidth="850" pageHeight="1100" math="0" shadow="0">
      <root>
        <mxCell id="0" />
        <mxCell id="1" parent="0" />
        <mxCell id="-RueHj7KB7Qer4iBRm-L-3" value="" style="edgeStyle=none;curved=1;rounded=0;orthogonalLoop=1;jettySize=auto;html=1;fontSize=12;startSize=8;endSize=8;" edge="1" parent="1" source="-RueHj7KB7Qer4iBRm-L-1" target="-RueHj7KB7Qer4iBRm-L-2">
          <mxGeometry relative="1" as="geometry" />
        </mxCell>
        <mxCell id="-RueHj7KB7Qer4iBRm-L-1" value="start" style="rounded=1;whiteSpace=wrap;html=1;" vertex="1" parent="1">
          <mxGeometry x="350" y="60" width="120" height="60" as="geometry" />
        </mxCell>
        <mxCell id="-RueHj7KB7Qer4iBRm-L-5" value="" style="edgeStyle=none;curved=1;rounded=0;orthogonalLoop=1;jettySize=auto;html=1;fontSize=12;startSize=8;endSize=8;" edge="1" parent="1" source="-RueHj7KB7Qer4iBRm-L-2" target="-RueHj7KB7Qer4iBRm-L-4">
          <mxGeometry relative="1" as="geometry" />
        </mxCell>
        <mxCell id="-RueHj7KB7Qer4iBRm-L-2" value="welcome function" style="whiteSpace=wrap;html=1;rounded=1;" vertex="1" parent="1">
          <mxGeometry x="350" y="240" width="120" height="60" as="geometry" />
        </mxCell>
        <mxCell id="-RueHj7KB7Qer4iBRm-L-11" value="" style="edgeStyle=none;curved=1;rounded=0;orthogonalLoop=1;jettySize=auto;html=1;fontSize=12;startSize=8;endSize=8;" edge="1" parent="1" source="-RueHj7KB7Qer4iBRm-L-4" target="-RueHj7KB7Qer4iBRm-L-10">
          <mxGeometry relative="1" as="geometry" />
        </mxCell>
        <mxCell id="-RueHj7KB7Qer4iBRm-L-4" value="print random cards, each get 2 random cards but the dealer/computer only shown 1 to user" style="whiteSpace=wrap;html=1;rounded=1;" vertex="1" parent="1">
          <mxGeometry x="347.5" y="430" width="130" height="80" as="geometry" />
        </mxCell>
        <mxCell id="-RueHj7KB7Qer4iBRm-L-13" value="" style="edgeStyle=none;curved=1;rounded=0;orthogonalLoop=1;jettySize=auto;html=1;fontSize=12;startSize=8;endSize=8;" edge="1" parent="1" source="-RueHj7KB7Qer4iBRm-L-10" target="-RueHj7KB7Qer4iBRm-L-12">
          <mxGeometry relative="1" as="geometry" />
        </mxCell>
        <mxCell id="-RueHj7KB7Qer4iBRm-L-16" value="" style="edgeStyle=none;curved=1;rounded=0;orthogonalLoop=1;jettySize=auto;html=1;fontSize=12;startSize=8;endSize=8;" edge="1" parent="1" source="-RueHj7KB7Qer4iBRm-L-10" target="-RueHj7KB7Qer4iBRm-L-15">
          <mxGeometry relative="1" as="geometry" />
        </mxCell>
        <mxCell id="-RueHj7KB7Qer4iBRm-L-10" value="user wants to draw another card?" style="rhombus;whiteSpace=wrap;html=1;rounded=1;" vertex="1" parent="1">
          <mxGeometry x="347.5" y="630" width="135" height="130" as="geometry" />
        </mxCell>
        <mxCell id="-RueHj7KB7Qer4iBRm-L-12" value="pick 1 random card then add it to the previous card" style="whiteSpace=wrap;html=1;rounded=1;" vertex="1" parent="1">
          <mxGeometry x="100" y="665" width="120" height="60" as="geometry" />
        </mxCell>
        <mxCell id="-RueHj7KB7Qer4iBRm-L-14" value="Yes" style="text;html=1;align=center;verticalAlign=middle;resizable=0;points=[];autosize=1;strokeColor=none;fillColor=none;fontSize=16;" vertex="1" parent="1">
          <mxGeometry x="259" y="661" width="50" height="30" as="geometry" />
        </mxCell>
        <mxCell id="-RueHj7KB7Qer4iBRm-L-19" value="" style="edgeStyle=none;curved=1;rounded=0;orthogonalLoop=1;jettySize=auto;html=1;fontSize=12;startSize=8;endSize=8;" edge="1" parent="1" source="-RueHj7KB7Qer4iBRm-L-15" target="-RueHj7KB7Qer4iBRm-L-18">
          <mxGeometry relative="1" as="geometry" />
        </mxCell>
        <mxCell id="-RueHj7KB7Qer4iBRm-L-15" value="compare user card with dealer" style="whiteSpace=wrap;html=1;rounded=1;" vertex="1" parent="1">
          <mxGeometry x="610" y="665" width="120" height="60" as="geometry" />
        </mxCell>
        <mxCell id="-RueHj7KB7Qer4iBRm-L-17" value="No" style="text;html=1;align=center;verticalAlign=middle;resizable=0;points=[];autosize=1;strokeColor=none;fillColor=none;fontSize=16;" vertex="1" parent="1">
          <mxGeometry x="520" y="661" width="40" height="30" as="geometry" />
        </mxCell>
        <mxCell id="-RueHj7KB7Qer4iBRm-L-21" value="" style="edgeStyle=none;curved=1;rounded=0;orthogonalLoop=1;jettySize=auto;html=1;fontSize=12;startSize=8;endSize=8;" edge="1" parent="1" source="-RueHj7KB7Qer4iBRm-L-18" target="-RueHj7KB7Qer4iBRm-L-20">
          <mxGeometry relative="1" as="geometry" />
        </mxCell>
        <mxCell id="-RueHj7KB7Qer4iBRm-L-23" value="" style="edgeStyle=none;curved=1;rounded=0;orthogonalLoop=1;jettySize=auto;html=1;fontSize=12;startSize=8;endSize=8;" edge="1" parent="1" source="-RueHj7KB7Qer4iBRm-L-18" target="-RueHj7KB7Qer4iBRm-L-22">
          <mxGeometry relative="1" as="geometry" />
        </mxCell>
        <mxCell id="-RueHj7KB7Qer4iBRm-L-18" value="user card &amp;gt; dealer?" style="rhombus;whiteSpace=wrap;html=1;rounded=1;" vertex="1" parent="1">
          <mxGeometry x="620" y="840" width="100" height="105" as="geometry" />
        </mxCell>
        <mxCell id="-RueHj7KB7Qer4iBRm-L-20" value="print you lose , your card total: .. , dealer total : .." style="whiteSpace=wrap;html=1;rounded=1;" vertex="1" parent="1">
          <mxGeometry x="390" y="862.5" width="120" height="60" as="geometry" />
        </mxCell>
        <mxCell id="-RueHj7KB7Qer4iBRm-L-22" value="print you won , your card total: .. , dealer: ..&amp;nbsp;" style="whiteSpace=wrap;html=1;rounded=1;" vertex="1" parent="1">
          <mxGeometry x="830" y="862.5" width="120" height="60" as="geometry" />
        </mxCell>
        <mxCell id="-RueHj7KB7Qer4iBRm-L-24" value="Yes" style="text;html=1;align=center;verticalAlign=middle;resizable=0;points=[];autosize=1;strokeColor=none;fillColor=none;fontSize=16;" vertex="1" parent="1">
          <mxGeometry x="539" y="851" width="50" height="30" as="geometry" />
        </mxCell>
        <mxCell id="-RueHj7KB7Qer4iBRm-L-25" value="No" style="text;html=1;align=center;verticalAlign=middle;resizable=0;points=[];autosize=1;strokeColor=none;fillColor=none;fontSize=16;" vertex="1" parent="1">
          <mxGeometry x="734" y="851" width="40" height="30" as="geometry" />
        </mxCell>
        <mxCell id="-RueHj7KB7Qer4iBRm-L-45" value="" style="edgeStyle=none;curved=1;rounded=0;orthogonalLoop=1;jettySize=auto;html=1;fontSize=12;startSize=8;endSize=8;entryX=1;entryY=0.5;entryDx=0;entryDy=0;" edge="1" parent="1" source="-RueHj7KB7Qer4iBRm-L-28" target="-RueHj7KB7Qer4iBRm-L-4">
          <mxGeometry relative="1" as="geometry">
            <mxPoint x="890" y="1153.6923452524038" as="targetPoint" />
            <Array as="points">
              <mxPoint x="1140" y="1060" />
              <mxPoint x="1540" y="1010" />
              <mxPoint x="1250" y="430" />
            </Array>
          </mxGeometry>
        </mxCell>
        <mxCell id="-RueHj7KB7Qer4iBRm-L-50" value="" style="edgeStyle=none;curved=1;rounded=0;orthogonalLoop=1;jettySize=auto;html=1;fontSize=12;startSize=8;endSize=8;" edge="1" parent="1" source="-RueHj7KB7Qer4iBRm-L-28" target="-RueHj7KB7Qer4iBRm-L-49">
          <mxGeometry relative="1" as="geometry" />
        </mxCell>
        <mxCell id="-RueHj7KB7Qer4iBRm-L-28" value="play again?" style="rhombus;whiteSpace=wrap;html=1;" vertex="1" parent="1">
          <mxGeometry x="630" y="1000" width="80" height="80" as="geometry" />
        </mxCell>
        <mxCell id="-RueHj7KB7Qer4iBRm-L-42" value="" style="endArrow=none;html=1;rounded=0;fontSize=12;startSize=8;endSize=8;curved=1;entryX=0.5;entryY=1;entryDx=0;entryDy=0;exitX=0;exitY=0.5;exitDx=0;exitDy=0;" edge="1" parent="1" source="-RueHj7KB7Qer4iBRm-L-28" target="-RueHj7KB7Qer4iBRm-L-20">
          <mxGeometry width="50" height="50" relative="1" as="geometry">
            <mxPoint x="450" y="1040" as="sourcePoint" />
            <mxPoint x="770" y="950" as="targetPoint" />
            <Array as="points">
              <mxPoint x="460" y="1060" />
            </Array>
          </mxGeometry>
        </mxCell>
        <mxCell id="-RueHj7KB7Qer4iBRm-L-43" value="" style="endArrow=none;html=1;rounded=0;fontSize=12;startSize=8;endSize=8;curved=1;entryX=0.5;entryY=1;entryDx=0;entryDy=0;exitX=1;exitY=0.5;exitDx=0;exitDy=0;" edge="1" parent="1" source="-RueHj7KB7Qer4iBRm-L-28" target="-RueHj7KB7Qer4iBRm-L-22">
          <mxGeometry width="50" height="50" relative="1" as="geometry">
            <mxPoint x="720" y="1000" as="sourcePoint" />
            <mxPoint x="770" y="950" as="targetPoint" />
            <Array as="points">
              <mxPoint x="910" y="1060" />
            </Array>
          </mxGeometry>
        </mxCell>
        <mxCell id="-RueHj7KB7Qer4iBRm-L-48" value="Yes&lt;div&gt;&lt;br&gt;&lt;/div&gt;" style="text;html=1;align=center;verticalAlign=middle;resizable=0;points=[];autosize=1;strokeColor=none;fillColor=none;fontSize=16;" vertex="1" parent="1">
          <mxGeometry x="1060" y="990" width="50" height="50" as="geometry" />
        </mxCell>
        <mxCell id="-RueHj7KB7Qer4iBRm-L-49" value="print thanks for playing" style="whiteSpace=wrap;html=1;" vertex="1" parent="1">
          <mxGeometry x="610" y="1210" width="120" height="60" as="geometry" />
        </mxCell>
      </root>
    </mxGraphModel>
  </diagram>
</mxfile>
